<?xml version="1.0" standalone="no"?>
<!DOCTYPE svg PUBLIC "-//W3C//DTD SVG 1.1//EN" "http://www.w3.org/Graphics/SVG/1.1/DTD/svg11.dtd" >
<svg xmlns="http://www.w3.org/2000/svg" xmlns:xlink="http://www.w3.org/1999/xlink" version="1.1">
<metadata></metadata>
<defs>
<font id="payboocbold" horiz-adv-x="2048" >
<font-face units-per-em="2048" ascent="1638" descent="-410" />
<missing-glyph horiz-adv-x="552" />
<glyph horiz-adv-x="0" />
<glyph horiz-adv-x="0" />
<glyph unicode="&#xd;" horiz-adv-x="655" />
<glyph unicode=" "  horiz-adv-x="552" />
<glyph unicode="&#x09;" horiz-adv-x="552" />
<glyph unicode="&#xa0;" horiz-adv-x="552" />
<glyph unicode="!" horiz-adv-x="894" d="M322 1559h249l-24 -1371h-203zM330 -8h233v-228h-233v228z" />
<glyph unicode="&#x22;" horiz-adv-x="921" d="M186 1020v553h220v-293q0 -18 -7.5 -36.5t-15.5 -33.5l-104 -192q-6 -10 -13.5 -17.5t-19.5 -7.5h-33q-27 0 -27 27zM524 1020v553h217v-293q0 -18 -7 -36.5t-15 -33.5l-103 -192q-6 -10 -13 -17.5t-19 -7.5h-33q-27 0 -27 27z" />
<glyph unicode="#" horiz-adv-x="1443" d="M121 264v201h219l61 391h-176v199h207l74 438h229l-73 -438h239l72 438h223l-72 -438h197v-199h-231l-58 -391h197v-160q0 -16 -10.5 -28.5t-26.5 -12.5h-186l-66 -424q-2 -10 -6 -19t-21 -9h-204l67 452h-244l-71 -424q-2 -10 -6 -19t-21 -9h-215l82 452h-180zM565 465 h246l57 391h-239z" />
<glyph unicode="$" horiz-adv-x="1378" d="M78 1081q-2 125 45 211q31 51 76 90t98 63.5t111.5 37t117.5 12.5h78v125h227v-125h363v-201l-363 -2v-516l82 -31q51 -16 106.5 -39.5t106 -57.5t89 -77t57.5 -98q59 -174 -12 -346q-41 -100 -147.5 -160.5t-254.5 -60.5h-27v-109q0 -18 -6 -26q-4 -10 -12 -18.5 t-22 -8.5h-187v162h-463v203l463 -3v527l-84 26q-86 29 -167 63t-148 91q-123 102 -127 268zM328.5 1059q25.5 -68 89.5 -113q41 -31 88 -50t98 -36v432h-39q-70 0 -130 -25.5t-93 -76.5q-39 -63 -13.5 -131zM831 109q74 8 131 35.5t80 78.5q33 74 19 140.5t-80 115.5 q-61 45 -150 80v-450z" />
<glyph unicode="%" horiz-adv-x="1800" d="M135 1010v71q0 129 74 210t199 81h106q68 0 118 -22.5t84 -62.5t51 -93t17 -113v-71q-2 -61 -21.5 -113.5t-54 -91.5t-84 -61.5t-110.5 -22.5h-106q-125 8 -199 89t-74 200zM315 1028q0 -59 32 -97t87 -42h51q59 6 88 47t29 94v35q0 49 -25.5 94t-91.5 45h-51 q-59 0 -89 -38t-30 -99v-39zM334 -174l913 1604h209l-883 -1569q-18 -35 -59 -35h-180zM1016 154v71q0 129 73.5 210t198.5 81h107q68 0 118 -22.5t83.5 -62.5t51 -93t17.5 -113v-71q-2 -61 -21.5 -113.5t-54.5 -91.5t-84 -61.5t-110 -22.5h-107q-125 8 -198.5 89t-73.5 200 zM1196 172q0 -59 32 -97t87 -42h51q59 6 88 47t29 94v35q0 49 -25.5 94t-91.5 45h-51q-59 0 -89 -38t-30 -99v-39z" />
<glyph unicode="&#x26;" horiz-adv-x="1642" d="M137 274q6 57 34 111.5t66.5 100.5t81.5 85t80 68l136 100l-97 99q-66 68 -98.5 144.5t-36.5 147.5q-6 98 30 170t99.5 119t147.5 69.5t174 22.5q102 0 182 -27.5t134 -76.5t83 -115.5t29 -146.5q0 -53 -16.5 -99.5t-43 -87t-59.5 -73.5t-64 -58l-153 -118l330 -353 q23 55 39 125t22 127l219 -18q-4 -49 -16.5 -105.5t-28.5 -111t-35.5 -103.5t-38.5 -86l275 -293q8 -8 6 -19t-19 -11h-260l-120 135q-111 -104 -240 -157.5t-297 -53.5q-154 0 -262.5 40t-175 107.5t-93 156.5t-14.5 185zM373 248q-10 -129 79 -197.5t242 -68.5 q111 0 209 51t162 131l-385 420l-145 -109q-63 -47 -110.5 -107.5t-51.5 -119.5zM537 1106q4 -25 20 -54.5t41 -60t53.5 -62.5t57.5 -61l157 119q45 35 70 75t25 79q0 86 -56.5 131t-154.5 45q-117 0 -172.5 -58.5t-40.5 -152.5z" />
<glyph unicode="'" horiz-adv-x="669" d="M213 991v582h229v-328q0 -18 -7 -36.5t-15 -32.5l-107 -187q-6 -10 -13 -17t-19 -7h-41q-27 0 -27 26z" />
<glyph unicode="(" horiz-adv-x="980" d="M227 614q0 162 27 306.5t75 264.5t112.5 212t140.5 151h276q-78 -61 -149.5 -153t-127 -212t-89 -263.5t-33.5 -305.5q0 -166 36.5 -310t95 -263t130.5 -210t141 -153h-274q-61 51 -126 136.5t-117 203t-85 267t-33 329.5z" />
<glyph unicode=")" horiz-adv-x="980" d="M119 -322q70 61 141.5 152.5t130 210.5t95 263.5t36.5 309.5q0 162 -33.5 305.5t-90 263.5t-128 212t-147.5 153h276q76 -59 140.5 -151t111.5 -212t75 -264.5t28 -306.5q0 -168 -34 -315t-86 -269t-115.5 -211t-125.5 -141h-274z" />
<glyph unicode="*" horiz-adv-x="1122" d="M111 492l258 147q10 4 11 12t-9 13l-228 131q-31 16 -14 45l68 118l262 -151q18 -10 18 12v268q0 35 31 35h139v-303q0 -20 21 -12l229 135q31 16 45 -10l70 -121l-258 -147q-10 -4 -9.5 -12.5t11.5 -12.5l227 -131q31 -14 14 -43l-69 -121l-260 148q-20 8 -21 -13v-262 q0 -35 -31 -35h-139v299q0 20 -18 13l-232 -134q-14 -6 -25.5 -6t-19.5 15z" />
<glyph unicode="+" horiz-adv-x="1607" d="M197 580v198h485v512h236v-512h493v-198h-493v-510q0 -29 -29 -29h-209l2 539h-485z" />
<glyph unicode="," horiz-adv-x="466" d="M131 57h229v-229q0 -18 -7 -36.5t-15 -33.5l-107 -192q-6 -10 -13 -17.5t-19 -7.5h-41q-27 0 -27 27v489z" />
<glyph unicode="-" horiz-adv-x="1382" d="M229 578v202h924v-162q0 -16 -12.5 -28t-28.5 -12h-883z" />
<glyph unicode="." horiz-adv-x="489" d="M123 55h233v-227h-233v227z" />
<glyph unicode="/" horiz-adv-x="1144" d="M143 -276l631 1828h234l-617 -1802q-8 -27 -39 -26h-209z" />
<glyph unicode="0" horiz-adv-x="1308" d="M68 469v371q0 135 30.5 257t99 213t178 145t269.5 54q154 0 266.5 -52t185 -147.5t108.5 -229.5t36 -298v-301q-2 -158 -34.5 -285.5t-103.5 -218t-181.5 -139.5t-268.5 -49q-145 0 -254.5 47t-183.5 135t-110.5 214t-36.5 284zM307 487q0 -117 20.5 -209t63.5 -156.5 t112 -99t165 -34.5q94 0 157.5 34.5t102.5 99t56 157t22 208.5v318q0 119 -18.5 213t-60.5 158.5t-110.5 98.5t-169.5 34q-92 0 -156.5 -35t-105.5 -100.5t-59.5 -158.5t-18.5 -210v-318z" />
<glyph unicode="1" horiz-adv-x="1308" d="M350 1296v199h377q55 0 87 -27.5t32 -81.5v-1505q0 -18 -10.5 -33.5t-38.5 -15.5h-181v1440q0 25 -30 24h-236z" />
<glyph unicode="2" horiz-adv-x="1308" d="M96 -80v178q0 49 19.5 91t44.5 73q27 35 65 68l527 444q39 33 75.5 71t65.5 80t46 88t17 93v33q-4 51 -28.5 84.5t-62.5 53t-83 28t-88 10.5q-29 0 -85 -2t-128.5 -10.5t-156.5 -23.5t-168 -42v205q86 29 172 44t158.5 22.5t127 8.5t78.5 1q100 -2 189.5 -21.5t157 -61.5 t108.5 -110t45 -164v-51q0 -66 -22.5 -131.5t-59.5 -124.5t-83 -111.5t-91 -91.5l-526 -442q-10 -8 -18.5 -16.5t-16.5 -18.5q-14 -16 -24.5 -35.5t-10.5 -42.5v-53q0 -12 16 -12h863v-152q0 -16 -11.5 -29.5t-25.5 -13.5h-1006q-29 0 -54.5 24.5t-25.5 59.5z" />
<glyph unicode="3" horiz-adv-x="1308" d="M121 84q29 -10 58.5 -18.5t64.5 -16.5q59 -14 139 -24.5t178 -10.5q74 0 146.5 17.5t132 53.5t96.5 90t37 128v62q0 63 -31 112t-84 82t-126 49.5t-154 16.5h-351v198h363q63 0 123.5 14.5t107.5 44t76 76t29 111.5v39q0 57 -34 98t-86 67.5t-116.5 38t-124.5 11.5 q-72 0 -145.5 -10t-134.5 -23q-35 -8 -70 -15t-70 -18v197q133 33 243 47.5t243 9.5q106 -6 202.5 -28.5t169 -66.5t114.5 -115.5t42 -176.5v-75q0 -47 -18.5 -94.5t-49 -87.5t-68.5 -71.5t-77 -50.5q45 -20 91 -51.5t82 -78t58.5 -105.5t22.5 -135v-78q0 -139 -54 -232.5 t-143.5 -150.5t-202 -80.5t-227.5 -23.5q-88 0 -168.5 10t-144.5 24q-37 8 -71.5 16.5t-67.5 18.5v205z" />
<glyph unicode="4" horiz-adv-x="1308" d="M57 170v186q0 43 8.5 69t32.5 62l703 1018h262v-1216h203v-199h-203v-264h-221v262h-705q-35 0 -57.5 23.5t-22.5 58.5zM281 301q0 -14 22 -14h539v921l-547 -774q-14 -20 -14 -45v-88z" />
<glyph unicode="5" horiz-adv-x="1308" d="M152 725v770h989v-199h-764v-436q0 -27 26 -26h236q125 0 229.5 -25t180 -79t116.5 -140t41 -209v-84q0 -127 -51 -216t-138 -145.5t-202 -82t-242 -25.5q-100 0 -201.5 13.5t-211.5 35.5v209q98 -23 198.5 -42t212.5 -17q80 0 152 13t127 46t89 86t38 131l2 59 q4 154 -86 216.5t-256 66.5h-406q-33 0 -56 22.5t-23 57.5z" />
<glyph unicode="6" horiz-adv-x="1308" d="M119 274v746q0 137 38 230t111.5 150.5t180 82t241.5 24.5q117 0 226.5 -16t213.5 -41v-203q-98 25 -199.5 40.5t-211.5 19.5q-98 -2 -168 -12.5t-114 -40t-65.5 -84t-21.5 -144.5l6 -182q92 37 186.5 45t186.5 8q248 0 361.5 -121t113.5 -362v-103q0 -131 -29.5 -223 t-94 -149.5t-167 -84t-247.5 -26.5q-139 0 -243 19.5t-171.5 69.5t-100 137t-32.5 220zM350 295q2 -86 18.5 -140.5t53.5 -84t98.5 -40t153.5 -10.5q80 0 137 12.5t95 45.5t55.5 89t17.5 144v105q0 82 -16.5 137t-54.5 88t-97 46t-145 13q-92 0 -153.5 -11t-97.5 -39.5 t-50.5 -80t-14.5 -131.5v-143z" />
<glyph unicode="7" horiz-adv-x="1308" d="M121 1303v196h1061v-139q0 -23 -10.5 -54.5t-20.5 -54.5l-631 -1386q-16 -29 -49 -29h-207l664 1442q10 25 -17 25h-790z" />
<glyph unicode="8" horiz-adv-x="1308" d="M68 266v56q0 61 12 123.5t38.5 119t65.5 103.5t95 80q-92 63 -128 138t-36 193v45q0 121 44 201t117.5 128t171 67.5t203.5 19.5q111 0 208 -20.5t171 -67.5t117 -124t43 -189v-66q0 -106 -36 -192t-124 -140h2q51 -31 90 -74.5t65.5 -96t41 -110t14.5 -112.5v-84 q0 -137 -46 -226t-126 -141.5t-186.5 -73t-227.5 -20.5q-135 0 -243.5 23.5t-185 77t-118.5 142.5t-42 220zM305 272q0 -84 28.5 -135t77 -80.5t112 -40t132.5 -10.5q76 0 141.5 12.5t112.5 42t74 79.5t27 126v56q0 174 -87.5 245.5t-271.5 71.5q-193 0 -269.5 -78 t-76.5 -239v-50zM348 1069q0 -76 19.5 -124t56.5 -75.5t93 -38t130 -10.5q88 0 147.5 12.5t96.5 42t53.5 76.5t16.5 117v53q0 70 -27 112t-71 63.5t-99 28.5t-111 7q-63 0 -118.5 -8t-97.5 -31.5t-65.5 -65.5t-23.5 -110v-49z" />
<glyph unicode="9" horiz-adv-x="1308" d="M86 911v115q6 141 40 238.5t99.5 156t166 84t239.5 25.5q152 0 258 -18.5t173.5 -68.5t98.5 -140.5t31 -231.5v-756q0 -141 -41 -235t-117 -150.5t-183.5 -79t-238.5 -22.5q-117 0 -221 18.5t-209 49.5v217q104 -31 207 -55.5t203 -24.5q90 0 160.5 11t118 42t71 85 t21.5 138l-7 160q-195 -61 -387 -49q-98 6 -185 27.5t-153.5 74.5t-105.5 146.5t-39 242.5zM319 915q0 -92 20.5 -151t60.5 -92t98.5 -45.5t132.5 -12.5q98 0 162.5 12.5t102.5 44t52.5 86t14.5 138.5v149q0 88 -18.5 143.5t-59.5 87.5t-105.5 44t-158.5 12t-152.5 -19.5 t-91.5 -57t-45.5 -94t-12.5 -132.5v-113z" />
<glyph unicode=":" horiz-adv-x="491" d="M131 94v228h234v-228h-234zM131 930v227h234v-227h-234z" />
<glyph unicode=";" horiz-adv-x="468" d="M119 932v227h233v-227h-233zM121 -145v489h231v-229q0 -18 -7 -37t-15 -33l-109 -192q-6 -10 -13 -17.5t-20 -7.5h-41q-27 0 -26 27z" />
<glyph unicode="&#x3c;" horiz-adv-x="1110" d="M186 623l541 925h258l-543 -927l543 -930h-258z" />
<glyph unicode="=" horiz-adv-x="1566" d="M285 324v196h995v-168q0 -29 -29 -28h-966zM285 836v196h995v-168q0 -29 -29 -28h-966z" />
<glyph unicode="&#x3e;" horiz-adv-x="1110" d="M125 -309l545 930l-545 927h262l543 -925l-543 -932h-262z" />
<glyph unicode="?" horiz-adv-x="1488" d="M236 1479q137 33 243.5 52t214.5 19q264 0 403.5 -96t139.5 -287q0 -129 -52 -236.5t-165 -225.5q-55 -57 -99 -106.5t-76 -96.5t-49.5 -94.5t-17.5 -100.5v-125h-217v121q0 55 13.5 111.5t47 119t88 132t138.5 151.5q72 72 119 154t39 174q-10 113 -85 157t-204 44 q-117 0 -226.5 -18.5t-240.5 -57.5zM557 -8h234v-228h-234v228z" />
<glyph unicode="@" horiz-adv-x="2033" d="M82 584q0 205 82 374.5t220 292.5t317 191.5t376 68.5q174 0 332 -54t276.5 -155.5t189.5 -247t71 -329.5q0 -111 -36 -222.5t-104.5 -200.5t-168 -144.5t-224.5 -55.5q-86 0 -142.5 37t-88.5 109q-133 -117 -330 -117q-78 0 -142.5 29.5t-109.5 82t-69.5 122 t-24.5 151.5q0 104 38 205.5t105.5 181.5t158.5 129t198 49q80 0 143 -23.5t111 -64.5h6l14 66h233l-149 -602q-4 -20 -5 -47t5 -50.5t20.5 -40t42.5 -16.5q70 0 122.5 39t87 99.5t52 135t17.5 146.5q0 137 -49 246.5t-136 185.5t-208 117t-264 41q-139 0 -269.5 -57.5 t-233 -157t-163.5 -232.5t-61 -286q0 -154 54 -275t147 -205t220 -128t275 -44q92 0 188.5 13.5t194.5 60.5l78 -186q-123 -53 -239 -72.5t-251 -19.5q-190 0 -355 59t-288 169.5t-193.5 270.5t-70.5 361zM748 537q0 -104 39.5 -156.5t125.5 -52.5q51 0 97.5 33.5t81 86 t55 117t20.5 125.5q0 37 -9 73t-28.5 64.5t-49 46t-70.5 17.5q-59 0 -107.5 -37t-82.5 -90t-53 -115.5t-19 -111.5z" />
<glyph unicode="A" horiz-adv-x="1644" d="M8 -164l643 1659h312l671 -1638q8 -20 -12 -21h-229l-185 453h-778l-168 -436q-10 -16 -22 -17h-232zM500 487h637l-318 803q-10 12 -18 0z" />
<glyph unicode="B" horiz-adv-x="1449" d="M170 -84v1579h688q76 0 158 -14.5t149.5 -50t111.5 -98t44 -158.5v-173q0 -92 -35 -166.5t-110 -127.5q43 -12 75.5 -43t56 -72t35 -88t11.5 -92v-185q-12 -201 -134 -296t-319 -95h-653q-33 0 -55.5 24.5t-22.5 55.5zM414 57q0 -18 24 -18h445q49 0 92 19.5t75.5 52 t51 74.5t18.5 87v105q0 39 -18.5 77t-51 68.5t-75.5 50t-92 19.5h-469v-535zM414 786h424q51 0 96 10.5t77.5 34t52 62.5t19.5 94v131q0 53 -22.5 87t-57 54.5t-78.5 27.5t-87 7h-424v-508z" />
<glyph unicode="C" horiz-adv-x="1341" d="M127 424v530q0 125 39 221.5t109.5 165t167 107.5t210.5 49q119 8 229.5 8t196.5 -4q51 -4 97.5 -7t91.5 -7v-203q-47 6 -94.5 11t-98.5 10q-85 6 -193 8h-36q-90 0 -182 -8q-76 -6 -131.5 -40t-90 -83t-52 -109.5t-17.5 -118.5v-495q0 -86 17.5 -159t56 -128t100 -90 t151.5 -43q61 -7 130 -7q28 0 56 1q100 4 185 10q51 4 101.5 9t101.5 11v-180q0 -20 -21 -22q-37 -4 -76.5 -8.5t-84.5 -8.5q-76 -6 -176 -9q-43 -1 -88 -1q-61 0 -128 2q-135 8 -241.5 53t-179 122t-111.5 181.5t-39 231.5z" />
<glyph unicode="D" horiz-adv-x="1476" d="M170 -84v1579h721q113 0 199 -36t144 -99.5t87 -152.5t29 -193v-621q-4 -281 -132 -419t-395 -138h-575q-33 0 -55.5 24.5t-22.5 55.5zM414 59q0 -18 24 -18h359q80 0 141 28.5t102 80t62.5 124t21.5 158.5v529q0 154 -74.5 243.5t-242.5 89.5h-393v-1235z" />
<glyph unicode="E" horiz-adv-x="1363" d="M170 -84v1579h1106v-201h-866v-501h778v-160q0 -39 -33 -39h-745v-535q0 -18 26 -18h840v-166q0 -16 -10.5 -27.5t-22.5 -11.5h-997q-31 0 -53.5 23.5t-22.5 56.5z" />
<glyph unicode="F" horiz-adv-x="1343" d="M172 -162v1659h1096v-201h-856v-493h815v-164q0 -16 -12.5 -27.5t-26.5 -11.5h-776v-723q0 -39 -31 -39h-209z" />
<glyph unicode="G" horiz-adv-x="1495" d="M143 383v559q0 129 38 227.5t106.5 166t166 106.5t218.5 49q82 8 166 8q26 0 52 -1q111 -3 210 -7q55 -4 109.5 -8t107.5 -8v-199q-53 4 -108.5 8t-110.5 8q-94 4 -203 7q-25 1 -50 1q-81 0 -153 -8q-154 -16 -227.5 -111.5t-73.5 -238.5v-530q0 -100 26.5 -171t73 -116 t105.5 -66.5t125 -23.5h233q106 0 145.5 52t39.5 124v307q0 16 -23 17h-364v196h497q59 0 95 -34.5t36 -90.5v-407q0 -70 -21.5 -136.5t-68.5 -117.5t-122.5 -83t-184.5 -32h-285q-129 0 -232.5 43t-175 119t-109.5 176t-38 215z" />
<glyph unicode="H" horiz-adv-x="1540" d="M170 -164v1659h242v-707h721v707h237v-1624q0 -16 -9 -25.5t-22 -9.5h-206v754h-721v-719q0 -35 -35 -35h-207z" />
<glyph unicode="I" horiz-adv-x="585" d="M170 -164v1659h246v-1622q0 -37 -33 -37h-213z" />
<glyph unicode="J" horiz-adv-x="935" d="M-27 37h258q70 0 125.5 12t94 45t58 89.5t19.5 142.5v1169h240v-1137q0 -152 -31.5 -252t-96.5 -160.5t-161 -85t-223 -24.5h-283v201z" />
<glyph unicode="K" horiz-adv-x="1449" d="M170 -164v1659h244v-752l682 750h317l-641 -700l676 -926q4 -6 3 -17.5t-17 -11.5h-265l-551 783l-204 -209v-539q0 -37 -33 -37h-211z" />
<glyph unicode="L" horiz-adv-x="1290" d="M170 -88v1583h244v-1438q0 -18 24 -18h797v-166q0 -14 -12.5 -26.5t-26.5 -12.5h-948q-35 2 -56.5 24.5t-21.5 53.5z" />
<glyph unicode="M" horiz-adv-x="1912" d="M168 -164v1659h348l430 -1309q4 -12 15.5 -12t15.5 12l430 1309h340v-1626q0 -33 -29 -33h-192v1247q0 10 -8.5 11.5t-12.5 -9.5l-407 -1218q-12 -37 -54 -37h-204l-426 1280q-4 10 -12.5 8t-8.5 -10v-1237q0 -35 -28 -35h-197z" />
<glyph unicode="N" horiz-adv-x="1591" d="M170 -164v1659h268l723 -1262q6 -10 14.5 -8t8.5 15v1255h237v-1634q0 -25 -26 -25h-262l-705 1249q-4 6 -11 5.5t-7 -11.5v-1220q0 -23 -21 -23h-219z" />
<glyph unicode="O" horiz-adv-x="1550" d="M127 897q0 125 42 238.5t125 200.5t206 138.5t286 51.5q154 0 273 -44t199.5 -125t121.5 -198t41 -262v-489q0 -147 -48 -259t-134 -188t-202 -113.5t-251 -37.5q-160 0 -282.5 47t-205.5 129t-126 190.5t-43 229.5zM365 424q0 -90 31.5 -165t88 -129t133 -85t168.5 -31 t167 30t129.5 84t83 130t28.5 166v463q0 92 -27.5 172t-80 139t-128.5 93t-172 34q-98 0 -176 -34t-132 -92t-83.5 -139t-29.5 -173v-463z" />
<glyph unicode="P" horiz-adv-x="1466" d="M170 -162v1659h772q82 0 161 -15.5t140.5 -54t98 -102t36.5 -160.5v-288q0 -90 -39 -157t-100 -110t-139 -64.5t-158 -21.5h-532v-649q0 -37 -39 -37h-201zM410 727h514q92 0 155.5 42t63.5 134v230q0 47 -16.5 78.5t-44 50t-66.5 26.5t-82 8h-524v-569z" />
<glyph unicode="Q" horiz-adv-x="1552" d="M127 893q0 115 37 227.5t115.5 201.5t202.5 144.5t300 55.5q154 0 273 -46t200.5 -129t123.5 -199t42 -255v-490q0 -135 -40 -236t-109 -175l176 -185q18 -18 18 -33q0 -17 -20 -30l-158 -119l-215 234q-137 -54 -291 -54q-162 0 -283.5 47.5t-203.5 128t-124 189.5 t-42 233zM365 420q0 -90 31.5 -165t87 -129t132 -85t166.5 -31q94 0 170 31t129.5 85t83 129t29.5 165v463q0 92 -27.5 173t-80 139t-129.5 92t-175 34q-96 0 -174 -34t-132 -92t-82.5 -139t-28.5 -173v-463z" />
<glyph unicode="R" horiz-adv-x="1458" d="M172 -164v1659h752q90 0 167.5 -16.5t135 -55.5t90.5 -103.5t33 -158.5v-274q0 -72 -25 -131.5t-64.5 -103.5t-88 -70.5t-93.5 -32.5l348 -694q4 -6 2 -12.5t-12 -6.5h-231l-342 686h-434v-643q0 -18 -7.5 -30.5t-27.5 -12.5h-203zM410 723h473q98 0 168.5 46t70.5 138 v213q-4 98 -60 136t-149 38h-503v-571z" />
<glyph unicode="S" horiz-adv-x="1363" d="M55 1063q0 106 37 186t103.5 132.5t156.5 80t197 31.5q69 2 149 3h54q55 0 111 -1q85 -2 170 -7t163 -13v-203q-78 8 -163 13t-169 8q-63 2 -123 2h-41q-80 -1 -147 -5q-104 -8 -177 -57t-73 -146q0 -59 29.5 -100t74 -71.5t95.5 -51t96 -37.5l315 -108q90 -31 163 -70 t123 -92t78 -122.5t28 -162.5q0 -205 -113 -309t-324 -121q-96 -6 -198 -7h-52q-76 0 -150 2q-99 3 -189 8.5t-162 11.5v211q68 -6 150.5 -11.5t170.5 -8.5t173 -4h55q54 0 102 1q68 2 123 13.5t95 37t62.5 67.5t22.5 107q0 59 -27.5 103.5t-70.5 76t-95.5 54t-99.5 39.5 l-268 86q-92 29 -175 66.5t-145.5 89t-98.5 120t-36 158.5z" />
<glyph unicode="T" horiz-adv-x="1349" d="M33 1292v203h1282v-203h-518v-1417q0 -39 -37 -39h-209v1456h-518z" />
<glyph unicode="U" horiz-adv-x="1529" d="M143 457v1038h244v-1001q2 -111 21.5 -197t62.5 -146.5t114.5 -91t180.5 -30.5t181.5 34.5t115.5 96t61.5 146.5t18.5 188v1001h241v-1038q-4 -311 -163.5 -480.5t-454.5 -169.5q-303 0 -461 166t-162 484z" />
<glyph unicode="V" horiz-adv-x="1443" d="M29 1495h254l426 -1321q4 -10 14 -10t14 10l426 1321h254l-557 -1616q-8 -20 -24.5 -31.5t-34.5 -11.5h-201z" />
<glyph unicode="W" horiz-adv-x="1921" d="M31 1499h235l244 -1323q2 -10 11 -10t11 10l289 1317h232l293 -1317q4 -10 13 -10t13 10l297 1323h223l-385 -1632q-8 -45 -59 -45h-225l-283 1194l-270 -1149q-8 -45 -60 -45h-231z" />
<glyph unicode="X" horiz-adv-x="1415" d="M20 -164l553 836l-540 823h268l416 -608l399 608h273l-545 -823l542 -815q14 -20 -8 -21h-258l-411 617l-396 -598q-12 -18 -34 -19h-259z" />
<glyph unicode="Y" horiz-adv-x="1458" d="M4 1497h277l446 -725l444 727h277l-598 -958v-674q0 -31 -31 -31h-223v705z" />
<glyph unicode="Z" horiz-adv-x="1318" d="M49 31l924 1261h-903v203h1179v-192l-925 -1262h960v-158q0 -20 -12 -32.5t-31 -12.5h-1192v193z" />
<glyph unicode="[" horiz-adv-x="983" d="M365 -315v1867h473v-196h-240v-1477h240v-194h-473z" />
<glyph unicode="\" horiz-adv-x="1144" d="M145 1552h242l621 -1798q4 -12 3 -21t-18 -9h-215z" />
<glyph unicode="]" horiz-adv-x="983" d="M143 -121h244v1477h-244v196h471v-1867h-471v194z" />
<glyph unicode="^" horiz-adv-x="1236" d="M92 938l426 621h189l407 -590q6 -8 4 -19.5t-18 -11.5h-219l-271 397l-254 -372q-10 -16 -22 -20.5t-35 -4.5h-207z" />
<glyph unicode="_" horiz-adv-x="1349" d="M279 -117h792v-168q0 -29 -29 -28h-763v196z" />
<glyph unicode="`" horiz-adv-x="628" d="M72 1489l213 104l239 -534q8 -25 -12 -37l-37 -18q-10 -4 -20.5 0t-20.5 8l-160 127q-14 10 -28.5 23.5t-22.5 29.5z" />
<glyph unicode="a" horiz-adv-x="1191" d="M117 115v239q0 61 25.5 108.5t68.5 80t99.5 51t117.5 20.5q30 1 63 1t69 -1q71 -2 130 -4q35 -2 70 -3t69 -3v62q-2 88 -34.5 118.5t-104.5 38.5q-23 2 -66.5 2h-78.5q-49 0 -108.5 -2t-112.5 -6l-62 -4t-59 -4v197q29 2 56.5 4t55.5 4q49 4 110.5 6t123.5 2q90 0 175 -6 t154.5 -27.5t115.5 -63.5t59 -116q12 -72 12 -184v-697q0 -35 -21.5 -60.5t-56.5 -25.5l-549 -6h-9q-139 0 -224 60q-88 62 -88 219zM346 160q0 -66 45 -93.5t94 -29.5q35 -1 72 -1h37q56 1 104 3q29 2 55.5 2t53.5 2q25 0 24 23v340q-29 2 -59.5 3t-58.5 3q-51 2 -113 4 q-31 1 -59.5 1t-55.5 -1q-59 0 -99 -31t-40 -90v-135z" />
<glyph unicode="b" horiz-adv-x="1282" d="M162 -70v1559h241v-479h46.5t48.5 2q41 2 89 3t93 1q131 0 222 -21.5t149.5 -72t85 -131t26.5 -199.5v-350q1 -220 -109 -314q-105 -91 -299 -90h-16l-499 8q-35 0 -56.5 26t-21.5 58zM403 61q0 -20 29 -20l279 -6q117 0 169 46t52 157v358q0 74 -18.5 118t-52.5 68.5 t-83 31.5t-108 7q-43 0 -90.5 -2t-85.5 -4q-23 -2 -45.5 -2t-45.5 -2v-750z" />
<glyph unicode="c" horiz-adv-x="1075" d="M109 328v190q0 264 135 383t405 119q55 0 110.5 -1t104.5 -3t88 -5t64 -5v-201q-66 4 -159 10t-181 6q-96 0 -161.5 -15t-105.5 -51t-58.5 -94.5t-18.5 -144.5v-188q0 -82 16.5 -138.5t55 -91.5t101 -50t152.5 -15h91.5t96.5 1t92 3t79 4v-156q0 -39 -41 -43 q-29 -2 -68 -3t-85 -2t-95 -1h-98q-152 0 -252.5 38t-159.5 103.5t-83.5 155.5t-24.5 195z" />
<glyph unicode="d" horiz-adv-x="1282" d="M119 242v352q0 119 26.5 199.5t85 131t149.5 72t222 21.5q45 0 93 -1t89 -1q23 -2 47.5 -2h47.5v475h241v-1561q0 -33 -21.5 -58.5t-56.5 -25.5l-499 -6h-16q-193 0 -299 90q-110 94 -109 314zM350 238q0 -111 52.5 -157t168.5 -46l279 6q29 0 29 20v754q-23 2 -45.5 2 t-45.5 2q-41 2 -87 3t-89 1q-59 0 -108 -7t-83 -31.5t-52.5 -68.5t-18.5 -118v-360z" />
<glyph unicode="e" horiz-adv-x="1273" d="M109 307v268q0 100 38.5 182.5t105 139.5t153 89t180.5 32h104q90 0 177 -25.5t155 -77t110 -125t42 -169.5v-170q0 -51 -36 -90t-87 -39h-709v-37q0 -86 35 -136.5t92 -76t130 -32.5t146 -9q40 -1 78 -1q66 0 126 4q93 7 192 19v-153q0 -39 -43 -45q-113 -16 -194 -20.5 t-167 -4.5q-303 0 -465.5 113.5t-162.5 363.5zM342 518h582q29 0 28 21v65q0 115 -72.5 166t-185.5 51h-88q-123 0 -193.5 -58t-70.5 -183v-62z" />
<glyph unicode="f" horiz-adv-x="874" d="M45 834v200h184v232q0 278 265 278h2h327v-201h-229q-70 0 -95.5 -22.5t-25.5 -91.5v-195h277v-164q0 -37 -31 -36h-246v-959q0 -37 -39 -37h-205v996h-184z" />
<glyph unicode="g" horiz-adv-x="1259" d="M121 260v346q0 197 92 300.5t317 111.5q48 1 102 1h56q86 -1 162 -3l178 -6q35 0 60.5 -22.5t25.5 -69.5v-1092q0 -139 -44 -222t-117.5 -126t-172 -56.5t-205.5 -13.5q-92 0 -182 6t-176 17v198q86 -10 177 -17t184 -9q51 0 104 4t97 21.5t72 50t28 92.5v79 q-72 -8 -141.5 -11t-137.5 -3q-123 6 -214 28.5t-149.5 72t-87 128t-28.5 195.5zM352 272q0 -139 58 -189q55 -48 174 -48h10q76 0 141.5 1t141.5 11h2v746q0 16 -25 16q-20 2 -43 3t-45 3q-41 2 -90 3h-32q-33 0 -64 -1q-53 0 -96.5 -9t-72 -31.5t-44 -62.5t-15.5 -104 v-338z" />
<glyph unicode="h" horiz-adv-x="1286" d="M164 -164v1655h237v-481q27 2 53.5 2t55.5 2q49 2 109.5 3t121.5 1q113 0 192 -20.5t128 -64.5t71.5 -116t22.5 -176v-766q0 -39 -35 -39h-198v805q0 61 -16.5 95t-47.5 51.5t-74 22.5t-98 7q-31 1 -64 1h-33q-50 -1 -91 -3q-25 -2 -49.5 -3t-47.5 -3v-930 q0 -18 -11 -30.5t-30 -12.5h-196z" />
<glyph unicode="i" horiz-adv-x="565" d="M150 1200v295h262v-295h-262zM164 -164v1182h237v-1141q0 -41 -39 -41h-198z" />
<glyph unicode="j" horiz-adv-x="681" d="M-74 -387h144q68 4 109.5 20.5t65 47t32 73.5t8.5 103v1165h231v-1114q0 -154 -20.5 -250t-70.5 -150.5t-136 -74t-217 -19.5h-146v199zM266 1198v297h260v-297h-260z" />
<glyph unicode="k" horiz-adv-x="1263" d="M164 -164v1659h244v-975l489 500h322l-500 -498l524 -661q14 -25 -10 -25h-260l-416 526l-151 -149v-334q0 -16 -10.5 -29.5t-26.5 -13.5h-205z" />
<glyph unicode="l" horiz-adv-x="571" d="M164 -164v1659h244v-1606q0 -23 -13.5 -38t-29.5 -15h-201z" />
<glyph unicode="m" horiz-adv-x="1728" d="M145 -164v1092q0 47 26 65.5t60 18.5l957 8q125 0 206 -18.5t127 -63.5t63.5 -117.5t17.5 -181.5v-764q0 -39 -37 -39h-199v823q0 51 -10 82t-31.5 48.5t-55.5 23.5t-81 6h-203v-948q0 -14 -7 -24.5t-24 -10.5h-206v983l-340 -6q-25 0 -25 -16v-914q0 -18 -13.5 -32.5 t-29.5 -14.5h-195z" />
<glyph unicode="n" horiz-adv-x="1267" d="M145 -164v1110q0 29 17.5 47.5t46.5 18.5l483 6q127 0 213 -21.5t138.5 -70.5t75 -130t22.5 -200v-723q0 -37 -33 -37h-205v758q0 131 -64.5 177t-183.5 46l-254 -4q-16 0 -16 -14v-928q0 -35 -31 -35h-209z" />
<glyph unicode="o" horiz-adv-x="1275" d="M106 303v240q0 106 30 193t86.5 149.5t139 97.5t187.5 35h184q113 0 195 -36t136 -100.5t80.5 -151.5t26.5 -187v-240q0 -113 -33.5 -200t-93 -146t-139.5 -90t-172 -31h-184q-100 4 -181 39t-139.5 96.5t-90.5 145.5t-32 186zM336 309q0 -129 67.5 -205.5t184.5 -76.5 h102q123 10 186.5 83.5t63.5 202.5v228q0 51 -12.5 102t-42 91t-77.5 65.5t-118 25.5h-106q-131 0 -189.5 -77.5t-58.5 -200.5v-238z" />
<glyph unicode="p" horiz-adv-x="1263" d="M143 -635v1553q0 47 26 69.5t60 22.5q35 2 91.5 4t124 3t139 1h137.5q223 0 324.5 -101.5t101.5 -316.5v-352q0 -123 -35 -203t-99.5 -127t-154.5 -65.5t-199 -18.5q-45 0 -93 1t-89 3q-23 2 -46 2t-46 2v-422q0 -55 -47 -55h-195zM385 45q23 -2 46.5 -3t47.5 -3 q41 -2 90.5 -3t92.5 -1q70 0 117.5 11t76.5 37t42 70t13 111v346q0 117 -56 163t-163 46h-143t-139 -4q-25 0 -25 -16v-754z" />
<glyph unicode="q" horiz-adv-x="1263" d="M117 250v350q0 215 101 316.5t325 101.5h137.5t138 -1t122.5 -3t91 -4q35 0 60.5 -22.5t25.5 -69.5v-1506q0 -45 -41 -45h-203v477q-23 -2 -45 -2t-45 -2q-41 -2 -88 -3t-92 -1q-109 0 -199 18.5t-154.5 65.5t-99 127t-34.5 203zM352 266q0 -68 13.5 -111.5t42 -69.5 t76.5 -37t118 -11q43 0 91 1t89 5q25 2 49.5 3t47.5 3v748q0 16 -25 16q-59 4 -139 5t-144 1q-106 0 -162.5 -46t-56.5 -163v-344z" />
<glyph unicode="r" horiz-adv-x="901" d="M127 -164v754q0 199 102.5 313.5t294.5 114.5h334v-199h-274q-104 0 -163 -63.5t-59 -167.5v-694q0 -25 -15 -41.5t-38 -16.5h-182z" />
<glyph unicode="s" horiz-adv-x="1097" d="M57 702q0 172 108.5 245t313.5 73q123 0 240 -5t239 -16v-200q-120 10 -232 17q-88 5 -173 5h-49q-31 0 -67 -3t-66.5 -14t-52 -36t-21.5 -68q0 -37 16.5 -58t43 -35.5t59.5 -23t65 -18.5l267 -76q66 -18 121 -43.5t95 -62.5t62.5 -86t22.5 -115q0 -109 -37 -176 t-103.5 -105t-158 -51.5t-197.5 -13.5h-40q-207 0 -417 19v204q116 -10 232 -16q87 -4 176 -4h59q37 0 81 4t81 18.5t61.5 42t24.5 74.5q0 31 -14.5 51.5t-37 33.5t-51 22.5t-57.5 17.5l-243 66q-61 16 -124 42.5t-113 66.5t-82 95.5t-32 128.5z" />
<glyph unicode="t" horiz-adv-x="841" d="M39 817v201h184v352h240v-352h287v-170q0 -31 -29 -31h-258v-672q0 -68 36 -88t95 -20h231v-162q0 -16 -11 -27.5t-26 -11.5h-262q-303 0 -303 293v688h-184z" />
<glyph unicode="u" horiz-adv-x="1273" d="M127 262v758h238v-764q1 -106 67 -158q64 -50 151 -49h7l280 6q23 0 23 25v938h240v-1090q0 -35 -21.5 -60.5t-56.5 -25.5l-424 -4h-18q-99 0 -183 20q-92 22 -159.5 74t-105.5 132.5t-38 197.5z" />
<glyph unicode="v" horiz-adv-x="1175" d="M39 1018h246l293 -881q4 -14 18 -14t18 14l293 881h236l-391 -1139q-6 -16 -24.5 -29.5t-39.5 -13.5h-237z" />
<glyph unicode="w" horiz-adv-x="1624" d="M31 1022h227l215 -860q4 -14 14.5 -14.5t14.5 14.5l203 860h208l205 -860q4 -12 15.5 -12t15.5 12l213 860h221l-309 -1141q-12 -45 -57 -45h-230l-180 756l-180 -711q-12 -45 -58 -45h-217z" />
<glyph unicode="x" horiz-adv-x="1239" d="M31 -164l448 590l-440 592h287l295 -393l297 393h282l-436 -592l424 -563q6 -8 2 -17.5t-16 -9.5h-252l-301 393l-287 -372q-14 -20 -37 -21h-266z" />
<glyph unicode="y" horiz-adv-x="1263" d="M127 272v746h229v-744q0 -72 14.5 -115.5t45 -69.5t76.5 -35t112 -9q76 0 137.5 1t139.5 11v961h237v-1149q0 -61 -5 -112.5t-17 -94.5q-27 -90 -89.5 -138t-143.5 -69.5t-170 -24.5t-171 -3q-45 0 -80.5 1t-69.5 3t-69 5t-80 7v199q137 -12 263 -18q40 -3 80 -3 q85 0 169 10q78 10 112 45t34 105v80q-72 -8 -150 -11.5t-145 -3.5q-240 0 -349.5 100.5t-109.5 325.5z" />
<glyph unicode="z" horiz-adv-x="993" d="M39 25l645 792h-629v201h885v-187l-645 -796h661v-156q0 -18 -14 -30.5t-31 -12.5h-872v189z" />
<glyph unicode="{" horiz-adv-x="993" d="M295 500v225q80 6 113.5 39t33.5 104v371q0 154 76 233.5t225 79.5h107v-196q-111 -2 -149.5 -27.5t-38.5 -97.5v-371q0 -98 -26 -158.5t-67 -95.5q41 -37 67 -99.5t26 -141.5v-355q0 -41 5 -66.5t24.5 -40t56 -19.5t102.5 -5v-194h-119q-147 0 -218 76.5t-71 224.5v366 q0 72 -33.5 104.5t-113.5 43.5z" />
<glyph unicode="|" horiz-adv-x="770" d="M266 -252v1745h236v-1716q0 -29 -29 -29h-207z" />
<glyph unicode="}" horiz-adv-x="993" d="M143 -315l2 194q61 0 96 5t53.5 18.5t24 39t5.5 68.5v355q0 78 29.5 140t64.5 101q-41 35 -67.5 95.5t-26.5 158.5v371q0 72 -36 97.5t-145 27.5v196h105q147 0 222 -79.5t75 -233.5v-371q0 -74 34.5 -105.5t116.5 -37.5v-225q-82 -10 -116.5 -43t-34.5 -105v-366 q0 -147 -69.5 -224t-217.5 -77h-115z" />
<glyph unicode="~" horiz-adv-x="1558" d="M190 674q133 141 292 161.5t356 -77.5q127 -61 236.5 -49t193.5 104l141 -147q-63 -72 -142 -109t-164 -46t-174 10.5t-175 62.5q-70 33 -127.5 45t-109.5 4t-101 -36t-103 -73z" />
<glyph horiz-adv-x="1925" />
<glyph unicode="&#xa1;" d="M899 -225l25 1366h182l24 -1366h-231zM901 1292v289h246v-289h-246z" />
<glyph unicode="&#xa4;" d="M475 182l152 154q-76 113 -76 260q0 72 20.5 137.5t57.5 122.5l-154 152l139 139l154 -154q57 45 118.5 59.5t135.5 14.5q70 0 135.5 -17.5t120.5 -56.5l152 154l141 -139l-152 -152q76 -115 76 -260q0 -72 -20.5 -138.5t-57.5 -121.5l150 -154l-137 -137l-152 152 q-57 -43 -121.5 -57.5t-134.5 -14.5q-74 0 -135.5 16.5t-118.5 55.5l-154 -152zM750 596q0 -123 70.5 -198.5t193.5 -75.5q131 0 203.5 75.5t72.5 198.5q0 125 -72.5 200.5t-203.5 75.5q-123 0 -193.5 -75.5t-70.5 -200.5z" />
<glyph unicode="&#xa7;" horiz-adv-x="966" d="M186.5 560q-6.5 48 4 91t40 79t80.5 56q-39 55 -58.5 126t-19.5 139q0 117 73 182t183 65q45 0 85 -16t71 -41q45 -35 63.5 -82t12.5 -87t-36 -64.5t-79 -14.5q-31 6 -50 25.5t-26.5 44t-2.5 52.5t24 52q-47 33 -107 11q-43 -16 -53 -52t-2 -77t27.5 -80t36.5 -62 q27 -37 58.5 -67.5t65 -58t66.5 -55.5t62 -60q74 -92 75 -199q2 -92 -31.5 -139t-93.5 -72q43 -41 63.5 -106.5t16.5 -136t-36.5 -134t-100.5 -96.5q-80 -41 -159 -27.5t-144 60.5q-55 37 -74.5 85t-10.5 89t42 65.5t84 14.5q29 -6 49.5 -23.5t29.5 -39t6 -45t-20 -42.5 q12 -27 40 -33t59 4q35 12 44 48t7 63q-4 76 -44 131t-93.5 106.5t-109.5 104.5t-91 125q-20 43 -26.5 91zM343 610q1 -24 13.5 -49.5t33 -49.5t38.5 -42q14 -14 35.5 -33.5t46.5 -35t47.5 -21.5t36.5 6q20 18 20 43t-12 51.5t-33 51t-37 42.5q-12 12 -34.5 32t-48 36 t-49 22.5t-35.5 -6.5q-23 -23 -22 -47z" />
<glyph unicode="&#xa8;" d="M590 1374q0 59 42 102.5t105 43.5q59 0 102.5 -43t43.5 -103q0 -63 -43 -105t-103 -42q-63 0 -105 42t-42 105zM1165 1374q0 59 41 102.5t105 43.5q61 0 104 -43t43 -103q0 -63 -43 -105t-104 -42q-63 0 -104.5 42t-41.5 105z" />
<glyph unicode="&#xaa;" d="M672 477v178h702v-178h-702zM686 979q0 74 12.5 124t43 78.5t81.5 41t129 12.5h185v6q0 59 -50.5 76.5t-130.5 11.5q-59 -4 -111 -14t-100 -21v187q61 12 126 21t114 9q100 0 168 -12t109 -43t59 -83t18 -130v-446q0 -35 -23.5 -59.5t-60.5 -24.5h-337q-78 0 -123 16 t-70 50t-32 83t-7 117zM891 983q0 -59 19.5 -72.5t72.5 -13.5h139q14 0 15 10v150h-152q-53 0 -73.5 -11.5t-20.5 -62.5z" />
<glyph unicode="&#xad;" d="M571 567v203h904v-203h-904z" />
<glyph unicode="&#xae;" d="M94 569q0 203 68.5 373t192.5 293t295 191.5t374 68.5q209 0 380 -69.5t293 -193.5t189.5 -294t67.5 -369q0 -203 -67.5 -372.5t-189.5 -292.5t-293 -191.5t-380 -68.5q-203 0 -374 68.5t-294 191.5t-192.5 292.5t-69.5 372.5zM305 569q0 -154 46 -289t136.5 -234 t225.5 -157.5t311 -58.5q299 0 485 156h-192l-240 475h-188h-30.5t-45.5 4v-479h-203v1079q0 37 27 61.5t61 24.5h453q104 0 165.5 -24.5t95.5 -68.5t44 -106.5t10 -138.5q0 -84 -13 -143.5t-37.5 -99.5t-58.5 -62.5t-73 -32.5l240 -475q104 98 162.5 238.5t58.5 330.5 q0 147 -46 281.5t-136 236t-225.5 162t-313.5 60.5q-176 0 -311 -58.5t-225.5 -159t-136.5 -235.5t-46 -287zM813 633q0 -10 27.5 -16.5t50.5 -6.5h231q92 0 130 42t38 151q0 53 -3 90t-18.5 59.5t-45 31.5t-82.5 9h-312q-16 0 -16 -16v-344z" />
<glyph unicode="&#xb0;" horiz-adv-x="843" d="M197 1280q0 43 17 84t47 71.5t71 50t90 19.5t90 -19.5t71.5 -50t47 -71.5t16.5 -84q0 -47 -16.5 -88t-47 -70.5t-71.5 -47t-90 -17.5t-90 17.5t-71 48t-47 70.5t-17 87zM332 1280q0 -33 22.5 -63.5t67.5 -30.5q43 0 65.5 30.5t22.5 63.5q0 29 -21.5 61.5t-66.5 32.5 q-47 0 -68.5 -32.5t-21.5 -61.5z" />
<glyph unicode="&#xb1;" d="M575 41v190h893v-190h-893zM578 772v191h344v368h190v-368h358v-191h-358v-389h-190v389h-344z" />
<glyph unicode="&#xb2;" horiz-adv-x="1187" d="M297 778v43q0 37 26.5 82t73.5 82l240 209q53 43 71.5 76t18.5 63q0 45 -21.5 65.5t-97.5 20.5q-41 0 -119.5 -7t-173.5 -21v145l144 14q41 4 78.5 6.5t72.5 2.5q117 0 190.5 -53.5t73.5 -172.5q0 -61 -38.5 -127.5t-96.5 -118.5l-211 -178q-29 -23 -44 -37t-21 -24 t-7 -17.5t-1 -15.5q-2 -8 8 -8h428v-82q0 -25 -17.5 -40t-33.5 -15h-432q-43 0 -77 30.5t-34 77.5z" />
<glyph unicode="&#xb3;" horiz-adv-x="1187" d="M303 684v141q55 -12 120.5 -19t125.5 -7q61 0 97 10t55.5 29.5t24.5 45t5 56.5q0 72 -32.5 99.5t-104.5 27.5h-252q-10 0 -16.5 7t-6.5 16v114h279q66 0 87.5 33t23.5 80q2 37 -9.5 57.5t-32 29.5t-48 11t-60.5 2q-51 0 -116.5 -8t-127.5 -12v137q66 10 134.5 15t123.5 5 q59 0 110.5 -9t89.5 -35.5t61.5 -71.5t25.5 -115q0 -51 -11 -102.5t-52 -77.5q51 -29 69.5 -91.5t18.5 -125.5q0 -74 -25.5 -124t-72 -81t-109 -45t-133.5 -14q-59 0 -118.5 6t-123.5 16z" />
<glyph unicode="&#xb4;" d="M827 1104l189 371q6 12 19.5 18t25.5 -2l151 -94q10 -6 12.5 -21.5t-5.5 -25.5l-252 -332q-18 -23 -45 -8l-82 51q-31 14 -13 43z" />
<glyph unicode="&#xb6;" d="M666 1018q0 68 28.5 125t76.5 99t111.5 65.5t133.5 23.5h364v-1587h-71v1526h-199v-1526h-70v956q-78 -4 -145.5 17.5t-118.5 62.5t-80.5 101.5t-29.5 136.5z" />
<glyph unicode="&#xb7;" horiz-adv-x="921" d="M313 643q0 61 42 104.5t104 43.5q61 0 104 -43t43 -105q0 -61 -43 -103t-104 -42t-103.5 42t-42.5 103z" />
<glyph unicode="&#xb8;" horiz-adv-x="843" d="M182 -145l37 69q18 -14 46 -22t58.5 -11.5t59.5 0t51 13.5q29 12 34 38.5t-24 41.5q-59 25 -108 0l-55 55l137 145l157 -43l-26 -41q43 -10 71.5 -41.5t37 -70.5t-6 -80t-55.5 -72q-45 -33 -99.5 -45t-110.5 -7t-109.5 23.5t-94.5 47.5z" />
<glyph unicode="&#xb9;" horiz-adv-x="1187" d="M457 1419v135h205q29 0 49 -19t20 -48v-817h-151v739q0 10 -11 10h-112z" />
<glyph unicode="&#xba;" d="M666 1034v162q0 70 23.5 129t68.5 102t111.5 68t152.5 25q90 0 157.5 -25t112.5 -68t67.5 -102t22.5 -129v-162q0 -76 -26.5 -135t-74.5 -101t-113.5 -63.5t-141.5 -21.5q-162 2 -261 85t-99 236zM680 498v178h702v-178h-702zM868 1083q0 -53 6.5 -90t23.5 -59.5 t48 -31.5t82 -9q84 0 119 39t35 151v64q0 104 -29 148t-123 44q-53 0 -85 -10t-49 -32.5t-22.5 -59.5t-5.5 -90v-64z" />
<glyph unicode="&#xbc;" d="M236 -207l1466 1692l108 -92l-1474 -1700zM348 1284v135h205q29 0 49.5 -19.5t20.5 -49.5v-815h-154v739q0 10 -10 10h-111zM1114 -14q0 27 4 44t31 48l321 438q18 23 40 42.5t49 19.5h57q25 0 44 -16.5t19 -47.5v-526h105v-84q0 -29 -17.5 -41.5t-29.5 -12.5h-58v-161 h-149v159h-309q-61 0 -84 25t-23 76v37zM1270 -4v-10h260v364l-254 -340q-6 -10 -6 -14z" />
<glyph unicode="&#xbd;" d="M225 -207l1467 1692l108 -92l-1474 -1700zM338 1284v135h205q29 0 48 -19.5t19 -49.5v-815h-151v739q0 10 -10 10h-111zM1229 -154q0 35 26.5 80t73.5 84l242 209q51 43 69.5 76t18.5 63q0 43 -21.5 64.5t-97.5 21.5q-41 0 -120 -7t-171 -23v147q59 6 142.5 14.5 t150.5 8.5q117 0 190.5 -53.5t73.5 -172.5q0 -63 -38.5 -128.5t-94.5 -116.5l-211 -179q-29 -25 -44 -39t-22 -23t-8.5 -16.5t-1.5 -15.5q-2 -8 9 -8h428v-82q0 -25 -16.5 -40t-32.5 -15h-435q-43 0 -76.5 30.5t-33.5 77.5v43z" />
<glyph unicode="&#xbe;" d="M236 -207l1466 1692l108 -92l-1474 -1700zM246 571v142q57 -12 121.5 -19.5t124.5 -7.5q61 0 98 10.5t55.5 29.5t23.5 45t5 56q0 72 -32 99.5t-103 27.5h-254q-10 0 -16.5 7.5t-6.5 15.5v115h281q66 0 87 32.5t23 79.5q2 37 -9 57.5t-31.5 29.5t-49 11.5t-61.5 2.5 q-49 0 -114.5 -8.5t-129.5 -12.5v137q66 10 135.5 15.5t124.5 5.5q59 0 110.5 -9.5t89.5 -36t60.5 -71.5t24.5 -115q2 -49 -11.5 -103t-50.5 -77q51 -29 69.5 -91t18.5 -126q0 -74 -26.5 -124t-72.5 -80.5t-108.5 -45t-134.5 -14.5q-55 0 -117.5 6t-123.5 16zM1114 -14 q0 27 4 44t31 48q342 461 360 479q20 20 50 21h57q25 0 44 -16.5t19 -47.5v-526h105v-84q0 -29 -17.5 -41.5t-29.5 -12.5h-58v-161h-149v159h-309q-61 0 -84 25t-23 76v37zM1270 -6v-8h260v364q-23 -31 -52.5 -69.5t-62.5 -83.5t-68.5 -92.5t-70.5 -94.5q-6 -10 -6 -16z" />
<glyph unicode="&#xbf;" d="M526 168q-6 82 8.5 147.5t45 121t75.5 104.5t101 96l178 154q37 31 47 76.5t10 99.5v188h205v-194q0 -72 -20.5 -152t-81.5 -139l-195 -174q-39 -35 -71.5 -67t-54 -67.5t-32 -79.5t-2.5 -106q8 -111 81 -158t196 -43q113 4 235.5 18.5t251.5 59.5l19 -194 q-68 -14 -127.5 -27.5t-113.5 -23t-105.5 -14.5t-106.5 -5q-248 0 -389 97.5t-154 281.5zM975 1307v280h237v-280h-237z" />
<glyph unicode="&#xc6;" d="M172 -78v1594h1702v-160q0 -16 -12.5 -28.5t-28.5 -12.5h-637v-471h592v-158q0 -16 -13.5 -28.5t-29.5 -12.5h-549v-510q0 -20 21 -20h657v-156q0 -16 -12.5 -28.5t-28.5 -12.5h-762q-53 0 -90 36t-37 89v530h-518v-651h-254zM426 776h518v539h-518v-539z" />
<glyph unicode="&#xd0;" d="M297 623v186h301v588q0 51 36 87t87 36h506q162 0 264 -61.5t159.5 -171t78 -258t20.5 -322.5q0 -158 -17.5 -300.5t-73.5 -251t-161.5 -172t-279.5 -63.5h-496q-51 0 -87 34t-36 87v582h-301zM813 125q0 -23 23 -23h383q117 0 181 52.5t95 137.5t37 193.5t6 221.5 q0 115 -9 228.5t-41 202.5t-93.5 144t-165.5 55h-393q-23 0 -23 -18v-510h479v-186h-479v-498z" />
<glyph unicode="&#xd7;" d="M635 928l135 135l252 -254l254 254l135 -135l-252 -252l240 -242l-135 -135l-242 242l-240 -242l-135 135l242 242z" />
<glyph unicode="&#xd8;" d="M377 700q0 178 28.5 329t101.5 261.5t197.5 172t315.5 59.5q92 0 166 -13.5t106 -27.5l54 112h223l-105 -219q106 -98 156.5 -265t50.5 -409q0 -172 -30.5 -322.5t-104.5 -262t-199 -175t-313 -61.5q-92 0 -162.5 11.5t-101.5 27.5l-64 -131h-221l111 233 q-111 86 -160 259.5t-49 420.5zM598 700q0 -190 21.5 -315t60.5 -168l532 1092q-23 10 -71.5 20t-116.5 10q-150 0 -234.5 -49t-128 -135t-53.5 -202.5t-10 -252.5zM842 88q16 -10 62 -18.5t116 -8.5q137 0 221 43t130 126t62.5 201t16.5 269q0 193 -21.5 311.5t-58.5 164.5 z" />
<glyph unicode="&#xde;" d="M438 -80v1600h217v-344q35 29 84 28l443 2q100 0 180 -20.5t135 -69.5t84 -128t29 -195v-101q0 -123 -32 -206t-94.5 -132t-153.5 -69.5t-210 -20.5q-41 0 -96 -1t-110.5 -1t-102.5 1t-72 3q-49 0 -84 29v-375h-217zM655 469q1 -20 21 -20q23 -2 89 -3.5t144 -1.5 t148.5 1t99.5 1q59 2 104.5 9.5t76 31t46 70.5t15.5 131v131q0 113 -49.5 159t-165.5 46h-508q-20 0 -21 -20v-535z" />
<glyph unicode="&#xdf;" d="M520 -201v1331q0 61 27.5 131t86 130.5t148.5 99.5t213 37q94 0 181.5 -30t152 -87t101 -142t32.5 -198q-4 -72 -33.5 -148.5t-123.5 -140.5q123 -57 173 -158.5t48 -236.5q0 -117 -50.5 -204t-128 -145t-171 -86t-179.5 -26l-137 -2v191h107q76 0 140 20.5t111.5 57 t74 88t28.5 112.5q2 98 -35 154.5t-101.5 84t-147.5 35t-173 7.5v192q80 -2 151.5 4.5t126 30t87.5 68.5t33 118q0 76 -19.5 125.5t-55.5 78t-86 39.5t-112 11q-47 2 -94 -10t-85 -39.5t-61.5 -70.5t-23.5 -101v-1321h-205z" />
<glyph unicode="&#xe6;" d="M190 250q-4 102 13.5 167.5t61.5 102.5t117 51.5t179 14.5h340v133q0 51 -9 81.5t-38 46t-80 19.5t-133 4q-37 0 -84 -2t-97 -7t-100.5 -13t-93.5 -21v185q43 8 93.5 15t99.5 12t93 8.5t77 3.5q166 -4 263 -27t148 -74q61 51 149.5 81t205.5 30q240 -2 351.5 -97.5 t111.5 -287.5v-164q0 -49 -34 -83t-87 -34h-621q0 -14 1 -34.5t1 -32.5q0 -72 25.5 -118t71 -71.5t105.5 -35t130 -9.5q31 0 76 4t96 11.5t104.5 18.5t98.5 26v-191q-80 -27 -181.5 -38t-207.5 -13q-238 -4 -375 84q-16 -29 -58 -52.5t-92 -23.5h-397q-100 0 -161.5 21.5 t-97.5 63.5t-49 103.5t-16 141.5zM406 256q2 -51 7 -81t19 -46t39 -21.5t66 -5.5h344q10 0 15 6.5t5 12.5v278h-360q-41 0 -68 -4t-42 -19.5t-21.5 -43t-3.5 -76.5zM1116 578h512q18 0 19 22v66q0 49 -11.5 89t-42 67.5t-82 41t-131.5 10.5q-143 -4 -202.5 -61t-61.5 -162 v-73z" />
<glyph unicode="&#xf0;" d="M537 334v291q0 127 30.5 211t94 133t158.5 69.5t224 20.5q72 0 136.5 -6t113.5 -21l2 47q0 162 -127 215l-243 -211l-121 146l121 104q-33 0 -77 -3t-93 -9t-101.5 -14.5t-101.5 -18.5v189q137 27 286.5 37t278.5 -13l246 211l119 -147l-162 -140q88 -57 138 -146 t50 -224v-1012q0 -53 -36.5 -89t-90.5 -36h-415q-102 0 -182 21.5t-135.5 70.5t-84 128t-28.5 196zM748 309q0 -111 46 -160t162 -49h318q20 0 20 23v657q0 29 -12 47.5t-41 29.5t-77 15.5t-122 4.5t-129 -10.5t-92 -37t-55 -73.5t-18 -119v-328z" />
<glyph unicode="&#xf7;" d="M578 571v191h892v-191h-892zM889 248q0 57 39 95t94 38q57 0 96 -38t39 -95t-39 -95t-96 -38q-55 0 -94 38t-39 95zM889 1085q0 57 39 95.5t94 38.5q57 0 96 -38t39 -96q0 -57 -39 -95t-96 -38q-55 0 -94 38t-39 95z" />
<glyph unicode="&#xf8;" d="M453 -180l161 248q-51 57 -79.5 135t-28.5 176v246q0 111 34.5 199.5t101.5 151t163 96.5t219 34q137 0 242 -37l102 156h227l-168 -256q125 -127 125 -344v-246q0 -117 -38.5 -205t-108.5 -147.5t-166 -89t-209 -29.5q-147 0 -260 49l-90 -137h-227zM717 397 q0 -41 4 -76.5t16 -62.5l424 647q-31 8 -62.5 12.5t-70.5 4.5q-160 0 -235.5 -71t-75.5 -233v-221zM872 115q31 -14 72 -20.5t86 -6.5q166 0 238.5 76t72.5 235v213q0 109 -32 174z" />
<glyph unicode="&#xfe;" d="M537 -80v1600h215v-265q8 8 22 17.5t49 17.5t96.5 13.5t161.5 3.5q94 -2 172 -24.5t135.5 -71t89 -126t31.5 -190.5v-336q0 -121 -25.5 -204t-84 -134t-151.5 -72.5t-228 -17.5q-47 2 -95 -1t-89 7q-47 8 -84 39v-256h-215zM752 465q2 -51 18 -83t51 -48.5t92.5 -20.5 t143.5 0q59 2 104 10.5t76 33t46 72.5t15 130v361q0 113 -48 156.5t-167 47.5q-94 6 -157.5 0t-102.5 -20t-55 -34.5t-16 -45.5v-559z" />
<glyph unicode="&#x152;" d="M135 717q0 174 20.5 323.5t85 260t182.5 174t314 63.5q51 0 99.5 -5t85.5 -13h991v-140q0 -18 -12.5 -30.5t-30.5 -12.5h-653q49 -49 82.5 -181t41.5 -310h484v-139q0 -16 -12.5 -28.5t-28.5 -12.5h-441q0 -74 -5 -155t-18 -156.5t-35.5 -141.5t-59.5 -111h688v-141 q0 -16 -12.5 -28.5t-30.5 -12.5h-926q-90 -25 -207 -24q-195 0 -312.5 63.5t-182 174t-86 260t-21.5 323.5zM356 717q0 -129 6.5 -246t41 -204t112.5 -138t223 -51q154 0 234 60.5t113.5 154.5t35.5 206.5t2 217.5q0 88 -3 188.5t-24.5 189.5t-70.5 155.5t-141 86.5 q-46 9 -144 19q-139 6 -215.5 -39t-114.5 -131t-46.5 -206t-8.5 -263z" />
<glyph unicode="&#x153;" d="M88 393v221q0 242 133 365t373 127q135 2 248.5 -37t185.5 -121q66 72 167 113t249 41q270 -2 393 -115t123 -303v-164q0 -53 -37 -89t-90 -36h-700v-18q0 -10 1 -17.5t1 -15.5q4 -74 31.5 -122t72.5 -76.5t106.5 -40t133.5 -11.5q33 0 88 3t118.5 9.5t126 16.5t109.5 24 v-182q-43 -12 -100.5 -22.5t-116.5 -16.5t-113.5 -10t-87.5 -4q-147 0 -272 36t-203 122q-131 -156 -422 -162q-109 0 -204 29.5t-164.5 89t-109.5 151.5t-40 215zM299 379q0 -154 83 -221.5t218 -69.5q154 -2 238 66.5t84 232.5v252q-4 141 -76 214t-248 69 q-154 -4 -226.5 -76t-72.5 -221v-246zM1135 578h594q20 0 20 18v94q0 215 -287 225q-147 4 -237 -55t-90 -170v-112z" />
<glyph unicode="&#x2000;" horiz-adv-x="856" />
<glyph unicode="&#x2001;" horiz-adv-x="1712" />
<glyph unicode="&#x2002;" horiz-adv-x="856" />
<glyph unicode="&#x2003;" horiz-adv-x="1712" />
<glyph unicode="&#x2004;" horiz-adv-x="570" />
<glyph unicode="&#x2005;" horiz-adv-x="428" />
<glyph unicode="&#x2006;" horiz-adv-x="285" />
<glyph unicode="&#x2007;" horiz-adv-x="285" />
<glyph unicode="&#x2008;" horiz-adv-x="214" />
<glyph unicode="&#x2009;" horiz-adv-x="342" />
<glyph unicode="&#x200a;" horiz-adv-x="95" />
<glyph unicode="&#x2010;" horiz-adv-x="1382" d="M229 578v202h924v-162q0 -16 -12.5 -28t-28.5 -12h-883z" />
<glyph unicode="&#x2011;" horiz-adv-x="1382" d="M229 578v202h924v-162q0 -16 -12.5 -28t-28.5 -12h-883z" />
<glyph unicode="&#x2012;" horiz-adv-x="1382" d="M229 578v202h924v-162q0 -16 -12.5 -28t-28.5 -12h-883z" />
<glyph unicode="&#x2013;" horiz-adv-x="1482" d="M229 578v202h1024v-162q0 -16 -14 -28t-31 -12h-979z" />
<glyph unicode="&#x2014;" horiz-adv-x="2506" d="M229 578v202h2048v-162q0 -16 -27.5 -28t-63.5 -12h-1957z" />
<glyph unicode="&#x2018;" horiz-adv-x="690" d="M240 1245v328h229v-582q0 -27 -27 -26h-41q-12 0 -19 7t-13 17l-107 187q-8 14 -15 32.5t-7 36.5z" />
<glyph unicode="&#x2019;" horiz-adv-x="690" d="M223 991v582h230v-328q0 -18 -7.5 -36.5t-15.5 -32.5l-106 -187q-6 -10 -13.5 -17t-19.5 -7h-41q-27 0 -27 26z" />
<glyph unicode="&#x201c;" horiz-adv-x="942" d="M190 1280v293h218v-553q0 -27 -27 -27h-33q-12 0 -19 7.5t-14 17.5l-102 192q-8 14 -15.5 33t-7.5 37zM526 1280v293h219v-553q0 -27 -26 -27h-33q-12 0 -19.5 7.5t-13.5 17.5l-104 192q-8 14 -15.5 33t-7.5 37z" />
<glyph unicode="&#x201d;" horiz-adv-x="942" d="M197 1020v553h219v-293q0 -18 -7.5 -36.5t-15.5 -33.5l-104 -192q-6 -10 -13.5 -17.5t-19.5 -7.5h-33q-27 0 -26 27zM535 1020v553h217v-293q0 -18 -7.5 -36.5t-15.5 -33.5l-102 -192q-6 -10 -13.5 -17.5t-19.5 -7.5h-33q-27 0 -26 27z" />
<glyph unicode="&#x2022;" horiz-adv-x="1904" d="M805 643q0 61 42 104.5t103 43.5t104.5 -43t43.5 -105q0 -61 -43 -103t-105 -42q-61 0 -103 42t-42 103z" />
<glyph unicode="&#x2026;" d="M248 643q0 61 42 104.5t103 43.5t104.5 -43t43.5 -105q0 -61 -43 -103t-105 -42q-61 0 -103 42t-42 103zM874 643q0 61 42 104.5t104 43.5q61 0 104 -43t43 -105q0 -61 -43 -103t-104 -42t-103.5 42t-42.5 103zM1505 643q0 61 42 104.5t104 43.5q61 0 104 -43t43 -105 q0 -61 -43 -103t-104 -42t-103.5 42t-42.5 103z" />
<glyph unicode="&#x202f;" horiz-adv-x="342" />
<glyph unicode="&#x205f;" horiz-adv-x="428" />
<glyph unicode="&#x20ac;" d="M330 438v185h278q-2 47 -3 94t3 94h-278v186h295q23 154 74 260.5t133.5 173t200.5 97.5t274 31q117 0 214 -11.5t195 -34.5v-190q-113 27 -215 39t-182 12q-104 -2 -187 -16.5t-142.5 -54t-97.5 -113.5t-54 -193h630v-186h-641q-4 -47 -2 -94t2 -94h641v-185h-626 q16 -90 47 -152.5t80 -102.5t119.5 -60.5t166.5 -26.5q63 -4 130 -3t128.5 7t114.5 17.5t90 27.5v-188q-70 -27 -180.5 -39t-226.5 -12q-152 0 -268.5 28.5t-200.5 93t-138.5 165t-78.5 245.5h-295z" />
<glyph unicode="&#x2122;" d="M416 1255v152h555v-109q0 -16 -12.5 -29.5t-28.5 -13.5h-152v-505h-170v505h-192zM1006 750v579q0 23 18 50.5t68 27.5h34q31 0 49.5 -20.5t24.5 -34.5l119 -219l119 221l10 16q10 14 26.5 25.5t36.5 11.5h39q33 0 56.5 -21.5t23.5 -48.5v-587h-168v315l-45 -88 q-10 -18 -31.5 -38.5t-46.5 -20.5h-36q-29 0 -50.5 21.5t-31.5 37.5l-45 86v-313h-170z" />
<glyph unicode="&#x25fc;" horiz-adv-x="1013" d="M0 0v1014h1014v-1014h-1014z" />
</font>
</defs>
</svg>
